<svg xmlns="http://www.w3.org/2000/svg" width="45.894" height="22.482" viewBox="0 0 45.894 22.482">
  <path fill='white' id="Контур_658" data-name="Контур 658" d="M0,23.407Q0,15,0,6.6A7.022,7.022,0,0,1,1.7,1.981,5.2,5.2,0,0,1,4.751.079,3.984,3.984,0,0,1,5.494.006Q11.253,0,17.012.006a4.6,4.6,0,0,1,3.259,1.43A6.978,6.978,0,0,1,22.481,6.6q0,16.938,0,33.876a5.457,5.457,0,0,1-4.549,5.317,13.257,13.257,0,0,1-1.982.095q-5.186.013-10.371,0A5.482,5.482,0,0,1,.07,41.242,5.983,5.983,0,0,1,0,40.217Q0,31.812,0,23.407ZM2.36,10.487c.025.122.036.191.054.258q1.022,3.92,2.042,7.84a.266.266,0,0,0,.313.242q6.472-.01,12.943,0c.19,0,.269-.051.317-.238q1.011-3.923,2.035-7.842c.019-.073.03-.148.051-.253A31.272,31.272,0,0,0,2.36,10.487ZM2.521,39.88H20.25c-.051-.088-.085-.155-.127-.217-.625-.942-1.255-1.881-1.873-2.827a.413.413,0,0,0-.4-.208c-4.19.005-8.381.012-12.571-.009a.955.955,0,0,0-.946.511C3.765,38.052,3.144,38.942,2.521,39.88ZM1.006,26.913V37c.082-.049.142-.082.2-.12.759-.505,1.515-1.015,2.279-1.513a.351.351,0,0,0,.176-.34q-.007-3.767,0-7.534v-.246ZM21.5,36.7V26.911l-2.646.345v.3c0,2.3.008,4.6-.01,6.9a.77.77,0,0,0,.411.762C20.007,35.682,20.729,36.186,21.5,36.7Zm0-11.473V14a.31.31,0,0,0-.1.141q-1.244,3.287-2.485,6.576a.992.992,0,0,0-.06.341q-.006,2.13,0,4.26c0,.081.009.162.015.252Zm-17.861.336c.006-.061.015-.106.015-.152q0-2.059,0-4.119a.794.794,0,0,0-.057-.271q-1.238-3.277-2.481-6.553c-.025-.065-.058-.126-.11-.238V25.226Z" transform="translate(45.894) rotate(90)" opacity="0.69"/>
</svg>
