<svg xmlns="http://www.w3.org/2000/svg" width="40.959" height="40.96" viewBox="0 0 40.959 40.96">
  <g id="car" opacity="0.69">
    <g id="Сгруппировать_775" data-name="Сгруппировать 775" transform="translate(0 0)">
      <g id="Сгруппировать_774" data-name="Сгруппировать 774" transform="translate(0 0)">
        <path fill='white' id="Контур_613" data-name="Контур 613" d="M35.371,20.569,32.43,19.1v-.326a3.417,3.417,0,0,0-3.413-3.413h-.853a.853.853,0,0,0-.853.853v.853H23.9a3.406,3.406,0,0,0-3.242,2.4l-.8-2.012a5.974,5.974,0,0,0,3.067-7.013L20.035.613A.859.859,0,0,0,19.625.1a.85.85,0,0,0-.649-.07L9.15,2.916a.854.854,0,0,0-.579,1.059L11.454,13.8a5.9,5.9,0,0,0,6.774,4.189l1,2.489H10.244A3.417,3.417,0,0,0,6.83,23.893H5.124v-2.56a.853.853,0,0,0-.853-.853,4.267,4.267,0,0,0,0,8.533.853.853,0,0,0,.853-.853V25.6H6.83a3.4,3.4,0,0,0,1.648,2.907L6.839,39.985a.853.853,0,0,0,.845.974,6.747,6.747,0,0,0,5.847-3.393l4.887-8.553h1.537L17.16,34.6a.853.853,0,0,0,1.527.763l3.177-6.355H27.31v.853a.853.853,0,0,0,.853.853h.853a3.417,3.417,0,0,0,3.413-3.413V26.98l2.942-1.471a.854.854,0,0,0,.472-.763V21.333A.854.854,0,0,0,35.371,20.569ZM12.049,36.719a5.038,5.038,0,0,1-3.367,2.432L10.132,29c.038,0,.073.011.111.011h6.21ZM11.186,6.826,10.45,4.314l8.188-2.4,1.441,4.914Z" transform="translate(-0.004 0.001)"/>
        <path fill='white' id="Контур_614" data-name="Контур 614" d="M471.9,277.342h-1.707a.853.853,0,1,0,0,1.707H471.9a.853.853,0,1,0,0-1.707Z" transform="translate(-431.792 -255.155)"/>
        <path fill='white' id="Контур_615" data-name="Контур 615" d="M470.191,216.756a.851.851,0,0,0,.6-.25L472.5,214.8a.853.853,0,0,0-1.207-1.207l-1.707,1.706a.853.853,0,0,0,.6,1.457Z" transform="translate(-431.792 -196.276)"/>
        <path fill='white' id="Контур_616" data-name="Контур 616" d="M470.794,320.259a.853.853,0,1,0-1.207,1.207l1.707,1.707a.853.853,0,0,0,1.207-1.207Z" transform="translate(-431.792 -294.409)"/>
      </g>
    </g>
  </g>
</svg>
