<svg xmlns="http://www.w3.org/2000/svg" width="47.251" height="35.438" viewBox="0 0 47.251 35.438">
  <g id="electronics" transform="translate(0 0)" opacity="0.69">
    <g id="Сгруппировать_767" data-name="Сгруппировать 767">
      <path fill='white' id="Контур_604" data-name="Контур 604" d="M44.3,77.781a2.956,2.956,0,0,0-2.953,2.953v2.953H39.376v-3.7A3.962,3.962,0,0,0,38.222,77.2L36.015,75a3.962,3.962,0,0,0-2.784-1.154H27.563V69.906h2.953a2.953,2.953,0,1,0,0-5.906H18.7a2.953,2.953,0,0,0,0,5.906h2.953v3.938h-3.7A3.962,3.962,0,0,0,15.173,75l-2.784,2.784H10.828a2.956,2.956,0,0,0-2.953,2.953v2.953H5.906V80.735a2.953,2.953,0,1,0-5.906,0V92.547a2.953,2.953,0,1,0,5.906,0V89.594H7.875v2.953A2.956,2.956,0,0,0,10.828,95.5h1.561l2.784,2.784a3.962,3.962,0,0,0,2.784,1.154h13.3a3.962,3.962,0,0,0,2.784-1.154l4.176-4.176a3.962,3.962,0,0,0,1.154-2.784v-1.73h1.969v2.953a2.953,2.953,0,1,0,5.906,0V80.735A2.956,2.956,0,0,0,44.3,77.781Z" transform="translate(0 -64)"/>
    </g>
  </g>
</svg>
