<svg xmlns="http://www.w3.org/2000/svg" width="34.46" height="26.099" viewBox="0 0 34.46 26.099">
  <g id="Сгруппировать_785" data-name="Сгруппировать 785" opacity="0.69">
    <g id="Сгруппировать_784" data-name="Сгруппировать 784" transform="translate(0 0)">
      <path fill='white' id="Контур_636" data-name="Контур 636" d="M61.592,184.47a17.68,17.68,0,0,0-.839-5.526,6.99,6.99,0,0,0-6.683-5.1,13.614,13.614,0,0,0-5.851,1.132,15,15,0,0,0-6.713,5.153,8.16,8.16,0,0,0-1.592,5.245,8.35,8.35,0,0,0,1.592,4.427,14.8,14.8,0,0,0,5.942,4.811,14.648,14.648,0,0,0,5.777,1.476,8.063,8.063,0,0,0,4.048-.807,6.664,6.664,0,0,0,2.615-2.467,10.46,10.46,0,0,0,1.348-3.627A22.251,22.251,0,0,0,61.592,184.47Zm-8.421,9.188c-.391-.05-.965-.09-1.526-.2a13.785,13.785,0,0,1-4.419-1.718,10.594,10.594,0,0,1-4.256-4.285,5.256,5.256,0,0,1-.472-3.666,7.239,7.239,0,0,1,2.055-3.51,13.452,13.452,0,0,1,8.674-3.99,5.37,5.37,0,0,1,2.959.532,4.891,4.891,0,0,1,2.292,2.988,15.429,15.429,0,0,1,.675,4.757,16.543,16.543,0,0,1-.726,5.708,5.157,5.157,0,0,1-1.594,2.416A5.331,5.331,0,0,1,53.171,193.658Z" transform="translate(-39.903 -173.836)"/>
      <path fill='white' id="Контур_637" data-name="Контур 637" d="M-186.051,196.814a1.232,1.232,0,0,0,.721,1.211q2.823,1.414,5.646,2.825,1.7.851,3.4,1.7a1.239,1.239,0,0,0,1.36-.051,1.194,1.194,0,0,0-.142-2.058c-.77-.413-1.559-.79-2.34-1.181q-3.366-1.683-6.731-3.367a1.3,1.3,0,0,0-1.216-.088A1.137,1.137,0,0,0-186.051,196.814Z" transform="translate(208.857 -194.458)"/>
      <path fill='white' id="Контур_638" data-name="Контур 638" d="M-185.991,275.832a1.27,1.27,0,0,0,.8,1.252c.935.463,1.866.933,2.8,1.4l6.154,3.073a1.232,1.232,0,0,0,1.849-.737,1.148,1.148,0,0,0-.533-1.311c-.529-.3-1.082-.566-1.628-.839q-3.807-1.9-7.617-3.8a1.214,1.214,0,0,0-1.78.7A1.716,1.716,0,0,0-185.991,275.832Z" transform="translate(208.799 -269.009)"/>
      <path fill='white' id="Контур_639" data-name="Контур 639" d="M-185.927,433.676a1.187,1.187,0,0,0,.716,1.122c1.133.571,2.269,1.135,3.4,1.7q2.723,1.362,5.445,2.725a1.514,1.514,0,0,0,1.238.213,1.179,1.179,0,0,0,.835-1.038,1.129,1.129,0,0,0-.625-1.171c-.654-.351-1.322-.676-1.986-1.008q-3.442-1.722-6.885-3.441a5.44,5.44,0,0,0-.511-.237A1.2,1.2,0,0,0-185.927,433.676Z" transform="translate(208.735 -417.853)"/>
      <path fill='white' id="Контур_640" data-name="Контур 640" d="M-186.013,354.759a1.271,1.271,0,0,0,.754,1.26q1.891.945,3.78,1.894c1.765.882,3.528,1.767,5.3,2.639a1.216,1.216,0,0,0,1.783-.788,1.215,1.215,0,0,0-.7-1.392c-.93-.471-1.865-.935-2.8-1.4q-3.076-1.538-6.152-3.077a1.274,1.274,0,0,0-1.63.156A1.071,1.071,0,0,0-186.013,354.759Z" transform="translate(208.818 -343.517)"/>
      <path fill='white' id="Контур_641" data-name="Контур 641" d="M-186.039,512.649a1.225,1.225,0,0,0,.731,1.206q2.534,1.269,5.069,2.535,1.993,1,3.986,1.991a1.23,1.23,0,0,0,1.83-.782,1.224,1.224,0,0,0-.715-1.388c-.726-.375-1.461-.734-2.192-1.1q-3.443-1.719-6.886-3.437a1.213,1.213,0,0,0-1.776.705A1.84,1.84,0,0,0-186.039,512.649Z" transform="translate(208.846 -492.444)"/>
    </g>
  </g>
</svg>
