<svg xmlns="http://www.w3.org/2000/svg" width="41.622" height="41.622" viewBox="0 0 41.622 41.622">
  <g id="transportation" opacity="0.69">
    <g id="Сгруппировать_773" data-name="Сгруппировать 773">
      <g id="Сгруппировать_772" data-name="Сгруппировать 772">
        <path fill='white' id="Контур_611" data-name="Контур 611" d="M99.207,85.333a13.874,13.874,0,1,0,13.874,13.874A13.89,13.89,0,0,0,99.207,85.333Zm7.1,5.182a.868.868,0,0,1,1.24-.049,12.074,12.074,0,0,1,3.533,6.269.868.868,0,0,1-.451.952,6.246,6.246,0,0,1-2.821.651,4.515,4.515,0,0,1-3.142-1.052C103.194,95.817,103.807,93.286,106.3,90.515Zm-14.2,17.518a.866.866,0,0,1-.61.286h-.034a.867.867,0,0,1-.6-.237,12.073,12.073,0,0,1-3.533-6.27.868.868,0,0,1,.451-.952c1.954-1.009,4.742-.821,5.963.4C95.219,102.732,94.605,105.263,92.109,108.034ZM93.75,97.286a4.515,4.515,0,0,1-3.142,1.052,6.251,6.251,0,0,1-2.821-.651.868.868,0,0,1-.451-.952,12.075,12.075,0,0,1,3.533-6.269.835.835,0,0,1,.63-.236.865.865,0,0,1,.61.285C94.607,93.286,95.22,95.817,93.75,97.286ZM102.9,110.77a12.128,12.128,0,0,1-7.391,0,.869.869,0,0,1-.6-.887c.217-3.12,2.064-5.474,4.3-5.474s4.082,2.353,4.3,5.474A.869.869,0,0,1,102.9,110.77ZM95.738,99.207a3.468,3.468,0,1,1,3.468,3.468A3.472,3.472,0,0,1,95.738,99.207ZM103.505,88.6c-.217,3.12-2.064,5.473-4.3,5.473s-4.082-2.353-4.3-5.473a.866.866,0,0,1,.6-.886,12.164,12.164,0,0,1,7.394,0A.866.866,0,0,1,103.505,88.6Zm7.572,13.077a12.074,12.074,0,0,1-3.533,6.27.866.866,0,0,1-.6.237h-.034a.865.865,0,0,1-.61-.285c-2.5-2.771-3.111-5.3-1.641-6.772,1.221-1.222,4.007-1.407,5.963-.4A.868.868,0,0,1,111.077,101.676Z" transform="translate(-78.396 -78.396)"/>
        <path fill='white' id="Контур_612" data-name="Контур 612" d="M20.811,0A20.811,20.811,0,1,0,41.622,20.811,20.834,20.834,0,0,0,20.811,0Zm0,36.419A15.608,15.608,0,1,1,36.419,20.811,15.626,15.626,0,0,1,20.811,36.419Z"/>
      </g>
    </g>
  </g>
</svg>
